Coordinates
version=1
nRows=17
nColumns=24
inDegrees=yes

Units are S.I. units (second, meters, Newtons, ...)
Angles are in degrees.

endheader
time	pelvis_tilt	pelvis_list	pelvis_rotation	pelvis_tx	pelvis_ty	pelvis_tz	hip_flexion_r	hip_adduction_r	hip_rotation_r	knee_angle_r	ankle_angle_r	subtalar_angle_r	mtp_angle_r	hip_flexion_l	hip_adduction_l	hip_rotation_l	knee_angle_l	ankle_angle_l	subtalar_angle_l	mtp_angle_l	lumbar_extension	lumbar_bending	lumbar_rotation
      5.19000000	      1.56099951	      1.44076525	      6.46252544	      0.48918520	      0.90410625	     -0.22581326	     22.11194606	     -0.15743221	    -10.67808824	     -2.08191468	     11.69564750	     10.99036315	      0.00000000	    -21.90651730	      4.14144555	      5.08162793	     -8.65797364	     14.91070679	      2.39074829	      0.00000000	    -23.01453614	     -1.54214265	    -13.11945483
      5.20000000	      1.55270809	      1.14957695	      6.31273097	      0.50623510	      0.90291141	     -0.22574067	     22.18293846	      0.47056941	    -10.27209410	     -3.28659385	     10.97118612	      9.13889579	      0.00000000	    -21.77517770	      3.69814041	      4.19375932	    -10.73996868	     14.11322553	      3.66108766	      0.00000000	    -22.81090764	     -1.13763271	    -12.74468915
      5.21000000	      1.47504241	      0.76504126	      6.12520572	      0.52350692	      0.90194989	     -0.22563423	     22.27357441	      1.18695273	     -9.31706773	     -4.63394641	      9.63836923	      6.30417200	      0.00000000	    -21.42521377	      3.14752498	      3.29774416	    -13.02631868	     12.88436086	      4.93762849	      0.00000000	    -22.46682297	     -0.63589440	    -12.33455632
      5.22000000	      1.35713909	      0.27381699	      5.81562918	      0.54091783	      0.90130961	     -0.22538701	     22.39801402	      2.03353351	     -7.88848912	     -6.12153345	      7.81282038	      2.92409353	      0.00000000	    -20.86851548	      2.49555991	      2.26887518	    -15.52076885	     11.14535641	      6.22935683	      0.00000000	    -22.03343012	     -0.03803997	    -11.85566955
      5.23000000	      1.19595502	     -0.31696241	      5.47859843	      0.55824472	      0.90102138	     -0.22508715	     22.60888268	      2.96271013	     -6.29778729	     -7.78831905	      5.78570042	     -0.52917064	      0.00000000	    -20.03097879	      1.70659787	      1.26342380	    -18.32648912	      9.00965532	      7.62796911	      0.00000000	    -21.55566138	      0.66770673	    -11.27037515
      5.24000000	      1.05195630	     -0.97985011	      4.99797304	      0.57552933	      0.90114018	     -0.22463170	     22.84682831	      4.00042188	     -4.53936495	     -9.62731006	      3.84694532	     -3.71304967	      0.00000000	    -19.02113577	      0.84538660	      0.22691819	    -21.34704443	      6.37206777	      9.00644801	      0.00000000	    -21.08499025	      1.43280297	    -10.63360838
      5.25000000	      0.95786937	     -1.67665259	      4.46430233	      0.59271414	      0.90161845	     -0.22411824	     23.04887990	      5.09039422	     -2.79336764	    -11.59163560	      2.38113133	     -6.35955304	      0.00000000	    -17.83955780	     -0.08237669	     -0.75112641	    -24.62797307	      3.36828805	     10.34269242	      0.00000000	    -20.66841951	      2.23584281	     -9.99022126
      5.26000000	      0.92754667	     -2.40346957	      3.90471389	      0.60959979	      0.90235710	     -0.22366771	     23.17582107	      6.21980198	     -1.12178577	    -13.61441830	      1.52739312	     -8.29637173	      0.00000000	    -16.46873368	     -1.04913166	     -1.55972407	    -28.20611544	      0.21082915	     11.47904206	      0.00000000	    -20.36079253	      3.10297004	     -9.41543620
      5.27000000	      0.94151473	     -3.03680231	      3.39105578	      0.62611332	      0.90323701	     -0.22318091	     23.19268980	      7.27444100	      0.39857328	    -15.57049412	      1.28786405	     -9.87267731	      0.00000000	    -14.89894939	     -1.93189408	     -2.03224571	    -32.02218664	     -2.97433073	     12.41345185	      0.00000000	    -20.13593173	      3.84520471	     -8.95225833
      5.28000000	      0.92816900	     -3.76478123	      3.00378275	      0.64240828	      0.90403051	     -0.22295750	     23.12455250	      8.37225412	      1.52534807	    -17.33143836	      1.67752559	    -10.89800933	      0.00000000	    -13.03016529	     -2.91360038	     -2.27439300	    -36.10413962	     -5.89981847	     12.93109623	      0.00000000	    -19.84655222	      4.74815060	     -8.64338307
      5.29000000	      0.83757994	     -4.54683962	      2.77722651	      0.65839774	      0.90463219	     -0.22295350	     22.98256410	      9.46037260	      2.26813859	    -18.77440081	      2.52171626	    -11.65241779	      0.00000000	    -10.81989795	     -3.93740063	     -2.23980429	    -40.38088865	     -8.42379714	     12.91821870	      0.00000000	    -19.44180544	      5.74577252	     -8.50782445
      5.30000000	      0.63836588	     -5.39038171	      2.71732600	      0.67406538	      0.90503515	     -0.22319211	     22.77446753	     10.52725804	      2.67896391	    -19.82578103	      3.65064334	    -12.19052745	      0.00000000	     -8.27444603	     -4.98789333	     -1.94078552	    -44.72908643	    -10.38190180	     12.34257079	      0.00000000	    -18.88815394	      6.85025513	     -8.56721582
      5.31000000	      0.38650268	     -6.29446980	      2.78061301	      0.68946346	      0.90540019	     -0.22361860	     22.42187170	     11.57876727	      2.80573864	    -20.43718696	      4.89567169	    -12.56333788	      0.00000000	     -5.52631731	     -6.03724121	     -1.42734583	    -48.98144733	    -11.62694911	     11.24175826	      0.00000000	    -18.25277826	      8.04367242	     -8.70255323
      5.32000000	      0.11937321	     -7.19193394	      2.90304998	      0.70468673	      0.90593788	     -0.22411836	     21.87322597	     12.56646040	      2.74271561	    -20.61269953	      6.16029342	    -12.75073293	      0.00000000	     -2.70157478	     -7.01310106	     -0.79143602	    -52.95286692	    -12.10036438	      9.79361758	      0.00000000	    -17.58046866	      9.22437511	     -8.86173021
      5.33000000	     -0.10294337	     -8.00009690	      3.01191943	      0.71974595	      0.90686588	     -0.22460062	     21.08567403	     13.43261217	      2.59071006	    -20.43114790	      7.36367081	    -12.69145526	      0.00000000	      0.05796692	     -7.82997340	     -0.12159876	    -56.50187678	    -11.75728521	      8.19200327	      0.00000000	    -16.98267674	     10.28092838	     -9.01285535
      5.34000000	     -0.22413100	     -8.61461476	      3.08968917	      0.73471751	      0.90836642	     -0.22504151	     20.00718690	     14.08592938	      2.41606538	    -19.95159108	      8.49888770	    -12.40588863	      0.00000000	      2.61861081	     -8.39495637	      0.51652563	    -59.50422268	    -10.63761574	      6.57089639	      0.00000000	    -16.52536409	     11.08327924	     -9.08450542
      5.35000000	     -0.24780235	     -8.95951812	      3.08411880	      0.74966573	      0.91049720	     -0.22536752	     18.66703329	     14.47045665	      2.30270397	    -19.26920843	      9.54972691	    -11.90498222	      0.00000000	      4.92630992	     -8.65750056	      1.01866223	    -61.88651624	     -8.95123458	      5.05018074	      0.00000000	    -16.21280422	     11.53007222	     -9.03688649
